<svg xmlns="http://www.w3.org/2000/svg" xmlns:xlink="http://www.w3.org/1999/xlink" id="svg" version="1.1" viewBox="65.51 74.4 292.15 124.45"><g id="svgg"><path id="path1" d="M71.410 74.587 C 68.520 75.033,67.122 76.017,66.101 78.326 L 65.514 79.654 65.517 136.307 C 65.520 174.128,65.617 193.318,65.811 194.036 C 66.884 198.023,69.458 198.850,80.791 198.850 C 90.443 198.850,93.365 198.274,95.322 195.989 C 96.880 194.168,96.893 193.995,96.893 174.141 C 96.893 153.953,96.833 154.640,98.693 153.314 C 102.004 150.952,108.152 154.817,112.745 162.147 C 114.880 165.556,121.203 176.161,122.596 178.672 C 123.114 179.605,124.392 181.829,125.438 183.616 C 126.483 185.403,128.052 188.155,128.924 189.733 C 133.516 198.040,134.579 198.548,147.881 198.785 C 169.135 199.164,170.498 197.740,161.760 184.293 C 160.134 181.791,157.906 178.232,156.809 176.383 C 147.635 160.925,142.342 153.143,137.711 148.305 C 133.809 144.229,134.063 142.719,139.276 138.984 C 152.263 129.678,157.024 118.319,155.074 101.297 C 153.951 91.492,148.260 83.961,138.064 78.787 C 129.224 74.301,131.087 74.510,99.011 74.415 C 84.718 74.372,72.297 74.450,71.410 74.587 M222.755 75.438 C 219.345 75.820,217.648 76.230,214.444 77.444 C 212.833 78.055,209.939 79.073,208.013 79.707 C 188.808 86.025,173.423 106.026,170.457 128.531 C 167.029 154.544,176.303 177.584,194.838 189.097 C 199.292 191.864,199.862 192.136,205.015 193.958 C 215.719 197.741,215.516 197.703,226.554 197.928 C 240.574 198.212,244.576 197.719,253.354 194.624 C 259.691 192.389,260.802 191.717,262.006 189.390 L 262.853 187.752 262.853 179.822 C 262.853 167.182,261.440 166.227,250.294 171.336 C 245.119 173.708,244.319 173.834,234.322 173.839 C 223.285 173.845,220.760 173.195,213.277 168.423 C 199.100 159.384,194.236 135.218,203.007 117.400 C 206.771 109.755,216.252 101.989,224.435 99.848 C 229.670 98.479,246.293 98.664,251.836 100.153 C 262.112 102.914,262.994 102.162,262.994 90.637 C 262.994 80.190,260.821 77.733,249.875 75.805 C 246.892 75.280,226.612 75.005,222.755 75.438 M312.066 75.442 C 309.062 75.749,306.933 76.280,303.390 77.605 C 301.914 78.158,299.268 79.090,297.509 79.678 C 287.589 82.996,278.727 92.589,276.646 102.260 C 275.864 105.899,275.931 115.303,276.764 118.659 C 279.751 130.691,289.459 139.740,306.194 146.092 C 310.577 147.756,318.912 152.062,321.450 153.975 C 331.969 161.901,330.530 171.315,318.258 174.861 C 311.325 176.864,309.196 176.961,302.739 175.564 C 292.708 173.395,292.234 173.228,286.770 169.953 C 280.942 166.458,279.329 166.094,277.552 167.872 C 276.208 169.216,275.989 170.708,275.989 178.506 C 275.989 190.946,276.181 191.237,286.733 194.735 C 295.894 197.772,296.482 197.850,310.169 197.857 C 324.271 197.863,324.593 197.816,334.015 194.368 C 347.786 189.328,355.310 180.780,357.185 168.043 C 359.579 151.781,352.950 139.922,336.441 130.928 C 331.509 128.241,330.654 127.827,328.033 126.861 C 326.036 126.125,322.829 124.643,315.678 121.153 C 308.821 117.806,304.393 111.900,305.112 107.059 C 305.794 102.461,308.757 99.985,316.094 97.880 C 322.607 96.012,323.890 95.990,331.497 97.620 C 338.684 99.161,340.539 99.637,342.432 100.429 C 348.436 102.941,350.335 102.824,351.836 99.849 C 352.716 98.104,352.696 84.955,351.810 83.051 C 350.324 79.856,345.284 77.137,338.418 75.827 C 335.603 75.290,316.310 75.008,312.066 75.442 M120.763 76.556 C 139.333 77.468,151.654 88.062,152.866 104.158 C 153.963 118.725,149.297 129.331,138.602 136.582 C 129.875 142.498,129.666 143.385,135.544 149.526 C 140.643 154.852,145.338 161.636,153.466 175.424 C 154.703 177.521,157.298 181.691,159.234 184.691 C 166.688 196.241,166.409 196.606,150.130 196.609 C 135.349 196.611,135.548 196.705,130.174 187.147 C 128.864 184.816,127.100 181.729,126.255 180.286 C 119.550 168.844,117.576 165.499,115.637 162.288 C 109.277 151.762,100.450 147.266,95.940 152.257 C 94.351 154.016,94.355 153.964,94.339 173.729 C 94.320 198.470,95.480 196.416,81.453 196.558 C 71.812 196.655,70.937 196.553,69.346 195.156 C 67.377 193.427,67.498 197.484,67.581 135.860 L 67.655 80.367 68.362 79.120 C 69.185 77.666,70.522 76.872,72.677 76.557 C 74.813 76.245,114.418 76.244,120.763 76.556 M99.638 94.922 C 97.324 95.508,95.600 97.005,94.875 99.058 C 94.215 100.925,94.326 125.418,95.002 127.171 C 96.920 132.141,105.997 132.541,115.445 128.072 C 125.991 123.083,128.011 104.908,118.701 98.779 C 113.997 95.683,104.347 93.730,99.638 94.922 M108.796 97.617 C 119.089 99.545,122.856 103.889,122.212 113.089 C 121.540 122.670,114.632 128.315,103.511 128.372 C 99.465 128.393,98.488 127.922,97.553 125.499 C 96.762 123.448,96.762 102.541,97.553 100.489 C 98.738 97.420,102.548 96.447,108.796 97.617 " stroke="none" fill="#5d59ed" fill-rule="evenodd" data-index="1"/><path id="path2" d="M72.677 76.557 C 70.522 76.872,69.185 77.666,68.362 79.120 L 67.655 80.367 67.581 135.860 C 67.498 197.484,67.377 193.427,69.346 195.156 C 70.937 196.553,71.812 196.655,81.453 196.558 C 95.480 196.416,94.320 198.470,94.339 173.729 C 94.355 153.964,94.351 154.016,95.940 152.257 C 100.450 147.266,109.277 151.762,115.637 162.288 C 117.576 165.499,119.550 168.844,126.255 180.286 C 127.100 181.729,128.864 184.816,130.174 187.147 C 135.548 196.705,135.349 196.611,150.130 196.609 C 166.409 196.606,166.688 196.241,159.234 184.691 C 157.298 181.691,154.703 177.521,153.466 175.424 C 145.338 161.636,140.643 154.852,135.544 149.526 C 129.666 143.385,129.875 142.498,138.602 136.582 C 149.297 129.331,153.963 118.725,152.866 104.158 C 151.654 88.062,139.333 77.468,120.763 76.556 C 114.418 76.244,74.813 76.245,72.677 76.557 M110.693 95.464 C 120.996 98.026,124.837 102.821,124.509 112.712 C 124.230 121.122,119.901 126.841,111.816 129.481 C 102.810 132.420,96.704 131.582,95.002 127.171 C 94.326 125.418,94.215 100.925,94.875 99.058 C 96.339 94.914,102.685 93.472,110.693 95.464 " stroke="none" fill="#e3f0f2" fill-rule="evenodd" data-index="2"/></g></svg>